HIERARCHY
ROOT Hips
{
	OFFSET 0.00000 0.00000 0.00000
	CHANNELS 6 Xposition Yposition Zposition Zrotation Yrotation Xrotation 
	JOINT LHipJoint
	{
		OFFSET 0 0 0
		CHANNELS 3 Zrotation Yrotation Xrotation
		JOINT LeftUpLeg
		{
			OFFSET 1.85590 -1.73949 0.84976
			CHANNELS 3 Zrotation Yrotation Xrotation
			JOINT LeftLeg
			{
				OFFSET 2.36836 -6.50702 0.00000
				CHANNELS 3 Zrotation Yrotation Xrotation
				JOINT LeftFoot
				{
					OFFSET 2.53268 -6.95849 0.00000
					CHANNELS 3 Zrotation Yrotation Xrotation
					JOINT LeftToeBase
					{
						OFFSET 0.15935 -0.43781 1.94506
						CHANNELS 3 Zrotation Yrotation Xrotation
						End Site
						{
							OFFSET 0.00000 -0.00000 1.00661
						}
					}
				}
			}
		}
	}
	JOINT RHipJoint
	{
		OFFSET 0 0 0
		CHANNELS 3 Zrotation Yrotation Xrotation
		JOINT RightUpLeg
		{
			OFFSET -1.68297 -1.73949 0.84976
			CHANNELS 3 Zrotation Yrotation Xrotation
			JOINT RightLeg
			{
				OFFSET -2.44709 -6.72334 0.00000
				CHANNELS 3 Zrotation Yrotation Xrotation
				JOINT RightFoot
				{
					OFFSET -2.43843 -6.69953 0.00000
					CHANNELS 3 Zrotation Yrotation Xrotation
					JOINT RightToeBase
					{
						OFFSET -0.20854 -0.57295 2.02172
						CHANNELS 3 Zrotation Yrotation Xrotation
						End Site
						{
							OFFSET -0.00000 -0.00000 1.05594
						}
					}
				}
			}
		}
	}
	JOINT LowerBack
	{
		OFFSET 0 0 0
		CHANNELS 3 Zrotation Yrotation Xrotation
		JOINT Spine
		{
			OFFSET -0.01560 2.23971 -0.03712
			CHANNELS 3 Zrotation Yrotation Xrotation
			JOINT Spine1
			{
				OFFSET 0.05490 2.19225 -0.19086
				CHANNELS 3 Zrotation Yrotation Xrotation
				JOINT Neck
				{
					OFFSET 0 0 0
					CHANNELS 3 Zrotation Yrotation Xrotation
					JOINT Neck1
					{
						OFFSET -0.12403 1.43168 0.27585
						CHANNELS 3 Zrotation Yrotation Xrotation
						JOINT Head
						{
							OFFSET 0.17855 1.46173 -0.32578
							CHANNELS 3 Zrotation Yrotation Xrotation
							End Site
							{
								OFFSET 0.07217 1.51590 -0.14537
							}
						}
					}
				}
				JOINT LeftShoulder
				{
					OFFSET 0 0 0
					CHANNELS 3 Zrotation Yrotation Xrotation
					JOINT LeftArm
					{
						OFFSET 3.27650 0.85634 0.05396
						CHANNELS 3 Zrotation Yrotation Xrotation
						JOINT LeftForeArm
						{
							OFFSET 4.96755 -0.00000 0.00000
							CHANNELS 3 Zrotation Yrotation Xrotation
							JOINT LeftHand
							{
								OFFSET 3.35751 -0.00000 0.00000
								CHANNELS 3 Zrotation Yrotation Xrotation
								JOINT LeftFingerBase
								{
									OFFSET 0 0 0
									CHANNELS 3 Zrotation Yrotation Xrotation
									JOINT LeftHandIndex1
									{
										OFFSET 0.79697 -0.00000 0.00000
										CHANNELS 3 Zrotation Yrotation Xrotation
										End Site
										{
											OFFSET 0.64254 -0.00000 0.00000
										}
									}
								}
								JOINT LThumb
								{
									OFFSET 0 0 0
									CHANNELS 3 Zrotation Yrotation Xrotation
									End Site
									{
										OFFSET 0.65235 -0.00000 0.65235
									}
								}
							}
						}
					}
				}
				JOINT RightShoulder
				{
					OFFSET 0 0 0
					CHANNELS 3 Zrotation Yrotation Xrotation
					JOINT RightArm
					{
						OFFSET -3.24434 1.02034 0.34688
						CHANNELS 3 Zrotation Yrotation Xrotation
						JOINT RightForeArm
						{
							OFFSET -5.21859 -0.00000 -0.00000
							CHANNELS 3 Zrotation Yrotation Xrotation
							JOINT RightHand
							{
								OFFSET -3.36504 -0.00000 0.00000
								CHANNELS 3 Zrotation Yrotation Xrotation
								JOINT RightFingerBase
								{
									OFFSET 0 0 0
									CHANNELS 3 Zrotation Yrotation Xrotation
									JOINT RightHandIndex1
									{
										OFFSET -0.62044 -0.00000 0.00000
										CHANNELS 3 Zrotation Yrotation Xrotation
										End Site
										{
											OFFSET -0.50022 -0.00000 0.00000
										}
									}
								}
								JOINT RThumb
								{
									OFFSET 0 0 0
									CHANNELS 3 Zrotation Yrotation Xrotation
									End Site
									{
										OFFSET -0.50786 -0.00000 0.50786
									}
								}
							}
						}
					}
				}
			}
		}
	}
}
MOTION
Frames: 5
Frame Time: .0083333
7.857400 15.935300 -40.395200 -2.275800 -2.774100 9.002400 0.000000 0.000000 0.000000 -13.923700 -5.702600 -41.272900 11.816500 18.312000 65.406000 0.169800 10.342500 -17.134000 0.442800 -4.269800 -11.837100 0.000000 0.000000 0.000000 28.626700 9.627900 -12.399600 -2.427100 -9.704100 28.023700 -1.169800 8.289200 -19.361400 -0.603700 4.973400 -13.832700 -2.289200 0.541900 -2.801100 3.631000 0.760500 -1.110100 5.058800 0.394000 0.350000 -11.855800 -3.864700 -19.940000 11.321800 -4.325100 18.131300 5.341800 -1.598900 9.529600 -0.000000 -0.000000 0.000000 -85.081700 11.081400 46.725300 13.508000 -22.027000 -2.640800 -0.000000 0.000000 -3.159700 9.530100 -19.944900 -3.277600 -7.125000 0.000000 -0.000000 -12.116700 10.127600 10.030200 -0.000000 -0.000000 0.000000 80.145300 1.488100 48.183800 -17.994300 28.149800 -4.546500 0.000000 -0.000000 -15.338000 -34.644400 -19.720700 13.125000 7.125000 -0.000000 -0.000000 -6.634100 -53.402200 1.375700
7.862900 15.838600 -40.208100 -3.213900 -2.995200 9.038200 0.000000 0.000000 0.000000 -13.262200 -5.050300 -42.006200 11.348800 18.101600 63.909100 0.447600 8.452800 -18.441300 0.664200 -5.212000 -14.514200 0.000000 0.000000 0.000000 29.915700 9.585400 -11.468600 -2.355900 -9.571000 27.598400 -1.192000 7.734500 -19.516400 -0.473200 4.412000 -12.238800 -1.364700 0.844100 -2.766200 3.746900 1.134800 -0.916000 4.665000 0.574400 0.507200 -11.573100 -4.066000 -20.611100 11.137500 -4.593500 18.367500 5.195900 -1.705500 9.758500 -0.000000 -0.000000 0.000000 -84.428400 11.492800 48.377500 12.887000 -21.121400 -2.412400 -0.000000 0.000000 -4.476600 10.363700 -20.936600 -3.738900 -7.125000 0.000000 -0.000000 -11.593100 9.071000 9.829200 -0.000000 -0.000000 0.000000 80.024700 3.136700 49.481900 -18.765400 29.126100 -4.916100 0.000000 -0.000000 -15.987700 -33.778600 -18.712900 12.112100 7.125000 -0.000000 -0.000000 -5.789900 -52.061100 1.009300
7.863000 15.759900 -40.031300 -4.451200 -3.247700 9.215600 0.000000 0.000000 0.000000 -10.843600 -6.156700 -42.804100 10.709100 17.789800 61.833100 1.012500 4.176700 -20.949900 0.318500 -3.627800 -10.031800 0.000000 0.000000 0.000000 31.548100 10.018100 -10.620000 -2.333100 -9.527800 27.460900 -1.234500 6.923900 -19.852200 -0.434600 4.230500 -11.726200 -0.350800 0.994400 -2.337500 4.113100 1.320000 -1.105100 4.464400 0.673900 0.070400 -11.802400 -3.883700 -20.058100 11.409700 -4.348500 17.787200 5.351000 -1.591900 9.435800 -0.000000 0.000000 0.000000 -84.605200 13.439300 46.054500 13.336300 -21.777900 -2.576700 -0.000000 0.000000 -2.661700 9.449400 -21.216400 -3.446800 -7.125000 0.000000 -0.000000 -12.173100 8.881900 10.391200 -0.000000 0.000000 0.000000 79.624000 4.452200 51.525500 -19.652400 30.221300 -5.355300 0.000000 -0.000000 -16.901200 -33.791100 -18.831200 12.189200 7.125000 -0.000000 -0.000000 -5.793000 -52.199700 1.029600
7.867200 15.738500 -39.830800 -4.721300 -3.535000 9.386400 0.000000 0.000000 0.000000 -10.179500 -6.746100 -43.812500 9.947400 17.380200 59.312600 1.089200 3.280900 -21.150700 0.164400 -2.612000 -7.200400 0.000000 0.000000 0.000000 31.958700 9.765400 -9.909900 -2.315100 -9.493600 27.351900 -1.260900 6.984400 -20.066100 -0.354400 3.824900 -10.584400 -0.224100 1.114000 -2.126100 4.215800 1.487800 -1.279200 4.495900 0.763300 -0.240000 -12.382200 -3.507000 -18.809200 12.148900 -3.852700 16.416600 5.738600 -1.353000 8.704900 0.000000 -0.000000 0.000000 -84.869300 14.446800 45.022900 12.741100 -20.906600 -2.360100 -0.000000 0.000000 -2.457000 9.320100 -21.005300 -3.366700 -7.125000 0.000000 -0.000000 -12.253200 9.101800 10.407900 0.000000 -0.000000 0.000000 79.132200 5.699500 53.441300 -20.461500 31.194300 -5.768500 0.000000 -0.000000 -17.885800 -34.280400 -18.094800 11.953800 7.125000 -0.000000 -0.000000 -6.363500 -51.446600 1.013900
7.873500 15.758600 -39.602900 -4.470000 -3.976800 9.437900 0.000000 0.000000 0.000000 -10.612600 -6.732300 -44.691100 9.051600 16.840800 56.268600 0.742300 5.604800 -19.260100 0.436000 -4.237200 -11.745000 0.000000 0.000000 0.000000 31.685400 9.082300 -8.852600 -2.201700 -9.274200 26.656700 -1.249200 7.447900 -19.973900 -0.640700 5.121100 -14.254200 -0.595800 1.335900 -2.173400 4.158000 1.788800 -1.229800 4.653200 0.915600 -0.196600 -12.652800 -3.591600 -18.922600 12.396700 -3.908800 16.127400 5.858200 -1.367500 8.646900 0.000000 0.000000 0.000000 -84.796600 15.942700 44.409000 13.131800 -21.480100 -2.501400 -0.000000 0.000000 -2.281200 9.612500 -20.260500 -3.356500 -7.125000 0.000000 -0.000000 -12.064700 9.809100 10.064700 0.000000 0.000000 0.000000 78.594700 7.047600 54.862400 -21.347900 32.232200 -6.234400 0.000000 -0.000000 -18.809100 -34.841900 -18.761800 12.619900 7.125000 -0.000000 -0.000000 -6.914500 -52.333300 1.253000
